<mxfile host="app.diagrams.net" agent="Mozilla/5.0 (Macintosh; Intel Mac OS X 10_15_7) AppleWebKit/605.1.15 (KHTML, like Gecko) Version/16.6 Safari/605.1.15" border="50" scale="3" compressed="false" locked="false" version="24.7.7">
  <diagram name="Blank" id="YmL12bMKpDGza6XwsDPr">
    <mxGraphModel dx="1283" dy="864" grid="0" gridSize="10" guides="1" tooltips="1" connect="1" arrows="1" fold="1" page="1" pageScale="1" pageWidth="827" pageHeight="1169" background="none" math="1" shadow="0">
      <root>
        <mxCell id="X5NqExCQtvZxIxQ7pmgY-0" />
        <mxCell id="1" parent="X5NqExCQtvZxIxQ7pmgY-0" />
        <mxCell id="NjAqU9Y5rHBkyYTPuW-a-1" value="" style="swimlane;fontStyle=2;childLayout=stackLayout;horizontal=1;startSize=20;fillColor=none;horizontalStack=1;resizeParent=1;resizeParentMax=0;resizeLast=0;collapsible=0;marginBottom=0;swimlaneFillColor=none;strokeColor=none;fontFamily=Helvetica;fontSize=14;fontColor=#BABABA;points=[];verticalAlign=middle;stackBorder=10;stackSpacing=-10;resizable=1;" parent="1" vertex="1">
          <mxGeometry x="160" y="111" width="1527" height="99" as="geometry" />
        </mxCell>
        <mxCell id="bHArMrMlONKAML6liJyr-26" value="Specify target&#xa;speaker(s)" style="shape=step;perimeter=stepPerimeter;strokeColor=#D6B656;fontFamily=Helvetica;fontSize=14;fontColor=#D6B656;fillColor=#fff2cc;fixedSize=1;size=17;fontStyle=1;strokeWidth=2;spacingTop=0;points=[];" vertex="1" parent="NjAqU9Y5rHBkyYTPuW-a-1">
          <mxGeometry x="10" y="30" width="137" height="59" as="geometry" />
        </mxCell>
        <mxCell id="bHArMrMlONKAML6liJyr-25" value="Speech Input" style="shape=step;perimeter=stepPerimeter;strokeColor=#B85450;fontFamily=Helvetica;fontSize=14;fontColor=#B85450;fillColor=#f8cecc;fixedSize=1;size=17;fontStyle=1;strokeWidth=2;spacingTop=0;points=[];" vertex="1" parent="NjAqU9Y5rHBkyYTPuW-a-1">
          <mxGeometry x="137" y="30" width="140" height="59" as="geometry" />
        </mxCell>
        <mxCell id="bHArMrMlONKAML6liJyr-24" value="Diarization" style="shape=step;perimeter=stepPerimeter;strokeColor=#6C8EBF;fontFamily=Helvetica;fontSize=14;fontColor=#6C8EBF;fillColor=#dae8fc;fixedSize=1;size=17;fontStyle=1;strokeWidth=2;spacingTop=0;points=[];" vertex="1" parent="NjAqU9Y5rHBkyYTPuW-a-1">
          <mxGeometry x="267" y="30" width="117" height="59" as="geometry" />
        </mxCell>
        <mxCell id="NjAqU9Y5rHBkyYTPuW-a-3" value="ASR" style="shape=step;perimeter=stepPerimeter;strokeColor=#82B366;fontFamily=Helvetica;fontSize=14;fontColor=#82B366;fillColor=#d5e8d4;fixedSize=1;size=17;fontStyle=1;strokeWidth=2;spacingTop=0;points=[];" parent="NjAqU9Y5rHBkyYTPuW-a-1" vertex="1">
          <mxGeometry x="374" y="30" width="100" height="59" as="geometry" />
        </mxCell>
        <mxCell id="NjAqU9Y5rHBkyYTPuW-a-4" value="SER&#xa;(BERT)" style="shape=step;perimeter=stepPerimeter;strokeColor=#D6B656;fontFamily=Helvetica;fontSize=14;fontColor=#D6B656;fillColor=#fff2cc;fixedSize=1;size=17;fontStyle=1;strokeWidth=2;spacingTop=0;points=[];" parent="NjAqU9Y5rHBkyYTPuW-a-1" vertex="1">
          <mxGeometry x="464" y="30" width="100" height="59" as="geometry" />
        </mxCell>
        <mxCell id="NjAqU9Y5rHBkyYTPuW-a-5" value="Embedding" style="shape=step;perimeter=stepPerimeter;strokeColor=#B85450;fontFamily=Helvetica;fontSize=14;fontColor=#B85450;fillColor=#f8cecc;fixedSize=1;size=17;fontStyle=1;strokeWidth=2;spacingTop=0;points=[];" parent="NjAqU9Y5rHBkyYTPuW-a-1" vertex="1">
          <mxGeometry x="554" y="30" width="136" height="59" as="geometry" />
        </mxCell>
        <mxCell id="bHArMrMlONKAML6liJyr-2" value="Combine &#xa;Feature&#xa; Modalities" style="shape=step;perimeter=stepPerimeter;strokeColor=#6C8EBF;fontFamily=Helvetica;fontSize=14;fontColor=#6C8EBF;fillColor=#dae8fc;fixedSize=1;size=17;fontStyle=1;strokeWidth=2;spacingTop=0;points=[];" vertex="1" parent="NjAqU9Y5rHBkyYTPuW-a-1">
          <mxGeometry x="680" y="30" width="137" height="59" as="geometry" />
        </mxCell>
        <mxCell id="bHArMrMlONKAML6liJyr-5" value="GPT &#xa;prompt &#xa;generation" style="shape=step;perimeter=stepPerimeter;strokeColor=#82B366;fontFamily=Helvetica;fontSize=14;fontColor=#82B366;fillColor=#d5e8d4;fixedSize=1;size=17;fontStyle=1;strokeWidth=2;spacingTop=0;points=[];" vertex="1" parent="NjAqU9Y5rHBkyYTPuW-a-1">
          <mxGeometry x="807" y="30" width="120" height="59" as="geometry" />
        </mxCell>
        <mxCell id="bHArMrMlONKAML6liJyr-4" value="Stable &#xa;Diffusion" style="shape=step;perimeter=stepPerimeter;strokeColor=#82B366;fontFamily=Helvetica;fontSize=14;fontColor=#82B366;fillColor=#d5e8d4;fixedSize=1;size=17;fontStyle=1;strokeWidth=2;spacingTop=0;points=[];" vertex="1" parent="NjAqU9Y5rHBkyYTPuW-a-1">
          <mxGeometry x="917" y="30" width="109" height="59" as="geometry" />
        </mxCell>
        <mxCell id="bHArMrMlONKAML6liJyr-7" value="Return image &#xa;capturing&#xa;emotional state" style="shape=step;perimeter=stepPerimeter;strokeColor=#D6B656;fontFamily=Helvetica;fontSize=14;fontColor=#D6B656;fillColor=#fff2cc;fixedSize=1;size=17;fontStyle=1;strokeWidth=2;spacingTop=0;points=[];" vertex="1" parent="NjAqU9Y5rHBkyYTPuW-a-1">
          <mxGeometry x="1016" y="30" width="263" height="59" as="geometry" />
        </mxCell>
        <mxCell id="bHArMrMlONKAML6liJyr-11" value="Phone background refreshes&#xa;to reflect the perceived mood" style="shape=step;perimeter=stepPerimeter;strokeColor=#9673a6;fontFamily=Helvetica;fontSize=14;fillColor=#e1d5e7;fixedSize=1;size=17;fontStyle=1;strokeWidth=2;spacingTop=0;points=[];fontColor=#9999FF;" vertex="1" parent="NjAqU9Y5rHBkyYTPuW-a-1">
          <mxGeometry x="1269" y="30" width="248" height="59" as="geometry" />
        </mxCell>
        <mxCell id="bHArMrMlONKAML6liJyr-1" value="Waveform&#xa;Analysis" style="shape=step;perimeter=stepPerimeter;strokeColor=#82B366;fontFamily=Helvetica;fontSize=14;fontColor=#82B366;fillColor=#d5e8d4;fixedSize=1;size=17;fontStyle=1;strokeWidth=2;spacingTop=0;points=[];" vertex="1" parent="1">
          <mxGeometry x="536" y="206" width="100" height="60" as="geometry" />
        </mxCell>
        <mxCell id="bHArMrMlONKAML6liJyr-6" value="MuseNet/&#xa;Jukedeck/&#xa;MusicLM" style="shape=step;perimeter=stepPerimeter;strokeColor=#82B366;fontFamily=Helvetica;fontSize=14;fontColor=#82B366;fillColor=#d5e8d4;fixedSize=1;size=17;fontStyle=1;strokeWidth=2;spacingTop=0;points=[];" vertex="1" parent="1">
          <mxGeometry x="1078" y="206" width="132" height="59" as="geometry" />
        </mxCell>
        <mxCell id="bHArMrMlONKAML6liJyr-8" value="Return summary &#xa;or detailed explana-&#xa;tion of emotional state" style="shape=step;perimeter=stepPerimeter;strokeColor=#D6B656;fontFamily=Helvetica;fontSize=14;fontColor=#D6B656;fillColor=#fff2cc;fixedSize=1;size=17;fontStyle=1;strokeWidth=2;spacingTop=0;points=[];" vertex="1" parent="1">
          <mxGeometry x="1251" y="76" width="187" height="59" as="geometry" />
        </mxCell>
        <mxCell id="bHArMrMlONKAML6liJyr-9" value="Return song &#xa;capturing&#xa;emotional state" style="shape=step;perimeter=stepPerimeter;strokeColor=#D6B656;fontFamily=Helvetica;fontSize=14;fontColor=#D6B656;fillColor=#fff2cc;fixedSize=1;size=17;fontStyle=1;strokeWidth=2;spacingTop=0;points=[];" vertex="1" parent="1">
          <mxGeometry x="1200" y="206" width="240" height="59" as="geometry" />
        </mxCell>
        <mxCell id="bHArMrMlONKAML6liJyr-10" value="Listen to live-updating &#xa;soundtrack which mirrors &#xa;your environment" style="shape=step;perimeter=stepPerimeter;strokeColor=#9673a6;fontFamily=Helvetica;fontSize=14;fillColor=#e1d5e7;fixedSize=1;size=17;fontStyle=1;strokeWidth=2;spacingTop=0;points=[];fontColor=#9999FF;" vertex="1" parent="1">
          <mxGeometry x="1430" y="206" width="248" height="59" as="geometry" />
        </mxCell>
        <mxCell id="bHArMrMlONKAML6liJyr-23" value="In-ear or on-screen text&#xa;translations and summaries" style="shape=step;perimeter=stepPerimeter;strokeColor=#9673a6;fontFamily=Helvetica;fontSize=14;fillColor=#e1d5e7;fixedSize=1;size=17;fontStyle=1;strokeWidth=2;spacingTop=0;points=[];fontColor=#9999FF;" vertex="1" parent="1">
          <mxGeometry x="1427" y="76" width="250" height="59" as="geometry" />
        </mxCell>
        <mxCell id="bHArMrMlONKAML6liJyr-28" value="SER&#xa;(wav2vec2)" style="shape=step;perimeter=stepPerimeter;strokeColor=#D6B656;fontFamily=Helvetica;fontSize=14;fontColor=#D6B656;fillColor=#fff2cc;fixedSize=1;size=17;fontStyle=1;strokeWidth=2;spacingTop=0;points=[];" vertex="1" parent="1">
          <mxGeometry x="625" y="206" width="100" height="59" as="geometry" />
        </mxCell>
        <mxCell id="bHArMrMlONKAML6liJyr-31" value="GPT" style="shape=step;perimeter=stepPerimeter;strokeColor=#82B366;fontFamily=Helvetica;fontSize=14;fontColor=#82B366;fillColor=#d5e8d4;fixedSize=1;size=17;fontStyle=1;strokeWidth=2;spacingTop=0;points=[];" vertex="1" parent="1">
          <mxGeometry x="1076" y="76" width="84" height="59" as="geometry" />
        </mxCell>
        <mxCell id="bHArMrMlONKAML6liJyr-32" value="&lt;font color=&quot;#ff9933&quot; size=&quot;1&quot;&gt;&lt;b style=&quot;font-size: 14px;&quot;&gt;Passive&amp;nbsp;&lt;/b&gt;&lt;/font&gt;&lt;div&gt;&lt;font color=&quot;#ff9933&quot; size=&quot;1&quot;&gt;&lt;b style=&quot;font-size: 14px;&quot;&gt;Listening&lt;/b&gt;&lt;/font&gt;&lt;/div&gt;" style="shape=trapezoid;perimeter=trapezoidPerimeter;whiteSpace=wrap;html=1;fixedSize=1;fillColor=#ffe6cc;strokeColor=#d79b00;strokeWidth=2;" vertex="1" parent="1">
          <mxGeometry x="275" y="206" width="165" height="60" as="geometry" />
        </mxCell>
        <mxCell id="bHArMrMlONKAML6liJyr-43" value="&lt;b&gt;&lt;font color=&quot;#ff8000&quot;&gt;Delete&lt;/font&gt;&lt;/b&gt;&lt;div&gt;&lt;b&gt;&lt;font color=&quot;#ff8000&quot;&gt;Audio&lt;/font&gt;&lt;/b&gt;&lt;/div&gt;" style="shape=parallelogram;perimeter=parallelogramPerimeter;whiteSpace=wrap;html=1;fixedSize=1;fillColor=#ffe6cc;strokeColor=#d79b00;strokeWidth=2;" vertex="1" parent="1">
          <mxGeometry x="625" y="77" width="102" height="57" as="geometry" />
        </mxCell>
        <mxCell id="bHArMrMlONKAML6liJyr-44" value="&lt;font color=&quot;#ff8000&quot;&gt;&lt;b&gt;Insert to&amp;nbsp;&lt;/b&gt;&lt;/font&gt;&lt;div&gt;&lt;font color=&quot;#ff8000&quot;&gt;&lt;b&gt;vector DB&lt;/b&gt;&lt;/font&gt;&lt;/div&gt;" style="shape=parallelogram;perimeter=parallelogramPerimeter;whiteSpace=wrap;html=1;fixedSize=1;fillColor=#ffe6cc;strokeColor=#d79b00;strokeWidth=2;" vertex="1" parent="1">
          <mxGeometry x="715" y="77" width="137" height="57" as="geometry" />
        </mxCell>
        <mxCell id="bHArMrMlONKAML6liJyr-46" value="Text To&#xa;Speech" style="shape=step;perimeter=stepPerimeter;strokeColor=#6C8EBF;fontFamily=Helvetica;fontSize=14;fontColor=#6C8EBF;fillColor=#dae8fc;fixedSize=1;size=17;fontStyle=1;strokeWidth=2;spacingTop=0;points=[];" vertex="1" parent="1">
          <mxGeometry x="1150" y="76" width="111" height="59" as="geometry" />
        </mxCell>
      </root>
    </mxGraphModel>
  </diagram>
</mxfile>
